<?xml version="1.0" encoding="UTF-8"?>
<svg width="512px" height="492px" viewBox="0 0 512 492" version="1.1" xmlns="http://www.w3.org/2000/svg" xmlns:xlink="http://www.w3.org/1999/xlink">
    <!-- Generator: Sketch 45.2 (43514) - http://www.bohemiancoding.com/sketch -->
    <title>fizy-logo</title>
    <desc>Created with Sketch.</desc>
    <defs></defs>
    <g id="Page-1" stroke="none" stroke-width="1" fill="none" fill-rule="evenodd">
        <g id="fizy-logo">
            <path d="M253.654205,25.6901423 L443.317136,134.167239 C529.894026,183.685788 529.894026,307.480008 443.317136,356.996404 L253.654205,465.475653 C142.384213,529.114373 3.29835348,449.564359 3.29835348,322.282614 L3.29835348,168.881029 C3.29835348,41.6014368 142.384213,-37.9507301 253.654205,25.6901423" id="Fill-1" fill="#000000"></path>
            <path d="M170.202689,6.5487969 C142.104316,6.5487969 114.014636,13.8704466 88.4001327,28.5202043 C37.1776462,57.8175669 6.59757621,110.289748 6.59757621,168.882321 L6.59757621,322.283905 C6.59757621,380.876478 37.1776462,433.346506 88.4001327,462.643869 C139.622619,491.941232 200.782759,491.939079 252.005246,462.643869 L441.668177,354.166773 C481.29275,331.502166 504.95145,290.909097 504.95145,245.582037 C504.95145,200.254976 481.29275,159.66406 441.668177,136.999453 L252.005246,28.5202043 C226.397262,13.8747522 198.294543,6.5487969 170.202689,6.5487969 M170.202689,491.164073 C140.96995,491.164073 111.748077,483.547491 85.1013446,468.305715 C31.812226,437.826469 0,383.240245 0,322.283905 L0,168.882321 C0,107.925981 31.812226,53.3376042 85.1013446,22.860511 C138.38829,-7.61873512 202.017088,-7.61873512 255.304034,22.8583582 L444.966965,131.337607 C486.65817,155.181945 511.551199,197.891209 511.551199,245.582037 C511.551199,293.272864 486.65817,335.982129 444.966965,359.828619 L255.304034,468.305715 C228.663821,483.543185 199.426736,491.164073 170.202689,491.164073" id="Fill-3" fill="#FED200"></path>
            <path d="M396.563008,198.173655 C389.383037,195.301829 381.20778,198.744146 378.311018,205.856974 L350.944985,273.028428 L323.224733,205.803155 C320.297548,198.70109 312.109252,195.295371 304.940146,198.195183 C297.771041,201.097149 294.333174,209.206721 297.262532,216.310938 L335.889646,309.987581 L320.756075,347.134028 C317.85714,354.249009 321.329777,362.345665 328.511922,365.217491 C330.233028,365.904232 332.008463,366.229304 333.755647,366.229304 C339.305782,366.229304 344.562547,362.944141 346.766085,357.534172 L404.318855,216.254966 C407.21779,209.139984 403.745152,201.045482 396.563008,198.173655" id="Fill-5" fill="#FFFFFF"></path>
            <path d="M274.270761,309.853032 L215.007751,309.853032 C209.805314,309.853032 205.030981,307.000581 202.605785,302.440965 C200.178416,297.883502 200.497864,292.368045 203.433742,288.116279 L245.79644,226.781048 L216.209483,226.781048 C208.464502,226.781048 202.184201,220.559476 202.184201,212.886921 C202.184201,205.214366 208.464502,198.994946 216.209483,198.994946 L272.382325,198.994946 C277.584761,198.994946 282.361267,201.847397 284.786463,206.407013 C287.213833,210.964476 286.894385,216.479932 283.956334,220.731699 L241.595809,282.06693 L274.270761,282.06693 C282.015742,282.06693 288.293871,288.288502 288.293871,295.961057 C288.293871,303.633612 282.015742,309.853032 274.270761,309.853032" id="Fill-7" fill="#FFFFFF"></path>
            <path d="M174.280539,311.589905 C166.535558,311.589905 160.25743,305.370486 160.25743,297.697931 L160.25743,210.710016 C160.25743,203.037461 166.535558,196.818042 174.280539,196.818042 C182.02552,196.818042 188.303648,203.037461 188.303648,210.710016 L188.303648,297.697931 C188.303648,305.370486 182.02552,311.589905 174.280539,311.589905" id="Fill-9" fill="#FFFFFF"></path>
            <path d="M158.289022,160.227877 C156.467952,149.233562 165.927521,139.8603 177.02779,141.664341 C183.749234,142.75796 189.168982,148.127026 190.272925,154.785616 C192.091822,165.782083 182.632253,175.153192 171.534156,173.349151 C164.812713,172.255532 159.390792,166.886466 158.289022,160.227877" id="Fill-11" fill="#FED200"></path>
            <path d="M133.704576,199.023148 L103.891615,199.023148 L103.891615,185.240966 C103.891615,177.609314 110.882525,171.036836 118.58839,171.036836 L132.076913,171.036836 C139.821894,171.036836 146.100022,164.716235 146.100022,157.04368 C146.100022,149.371125 139.821894,143.050525 132.076913,143.050525 L118.58839,143.050525 C95.4164681,143.050525 75.6411244,162.287885 75.6411244,185.240966 L75.6411244,297.722257 C75.6411244,305.394812 82.0213891,311.616385 89.7663699,311.616385 C97.5113506,311.616385 103.891615,305.394812 103.891615,297.722257 L103.891615,227.009459 L133.704576,227.009459 C141.449557,227.009459 147.727685,220.688858 147.727685,213.016303 C147.727685,205.343748 141.449557,199.023148 133.704576,199.023148" id="Fill-13" fill="#FFFFFF"></path>
        </g>
    </g>
</svg>